<svg width="154" height="185" viewBox="0 0 154 185" fill="none" xmlns="http://www.w3.org/2000/svg">
<g clip-path="url(#clip0_73_1168)">
<path d="M146.073 121.194C144.791 124.001 142.777 126.176 140.433 127.286C138.322 128.283 135.238 127.906 134.771 124.486C134.558 122.939 135.369 120.241 136.229 119.235C137.993 117.169 139.675 116.687 141.88 115.532C142.956 114.971 144.159 114.526 145.296 115.016C146.432 115.506 147.351 117.292 146.861 118.675" fill="black"/>
<path d="M134.622 79.1228C134.469 79.96 134.981 80.7784 135.803 80.9915C139.151 81.866 142.201 83.5852 145.097 86.2125C147.923 88.78 150.173 93.5937 150.569 97.9253C150.711 99.4613 150.565 101.031 150.304 102.918C149.881 105.961 149.22 109.459 147.53 112.314C145.841 115.166 143.139 117.079 140.474 117.311L140.751 120.491C144.481 120.166 148.042 117.718 150.277 113.94C152.258 110.595 153.002 106.712 153.465 103.356C153.719 101.536 153.929 99.5809 153.749 97.6338C153.278 92.4949 150.662 86.9562 147.246 83.8505C143.943 80.8495 140.433 78.8874 136.558 77.8895C135.679 77.6615 134.79 78.2296 134.622 79.1228Z" fill="black" stroke="#030000" stroke-miterlimit="10"/>
<path d="M57.3117 180.677C57.0276 180.677 56.7399 180.632 56.4596 180.542C55.5663 180.251 54.9011 179.503 54.7217 178.595C54.5386 177.676 54.8899 176.745 55.6187 176.166C56.7062 167.365 57.9171 158.466 59.2177 149.706C59.513 147.718 59.8792 145.243 61.2134 143.095C61.8936 141.996 63.3362 141.659 64.435 142.343C65.5338 143.023 65.8701 144.466 65.1899 145.565C64.364 146.892 64.1024 148.674 63.8445 150.397C62.4916 159.505 61.2396 168.762 60.1184 177.911C60.0736 178.274 59.954 179.231 59.1467 179.971C58.6422 180.434 57.9844 180.681 57.3117 180.681V180.677Z" fill="black"/>
<path d="M56.4372 176.364C53.6267 175.557 50.607 175.516 47.7778 176.252C45.827 176.76 43.6406 178.143 43.8013 180.191C43.9247 181.75 45.3822 182.818 46.78 183.45C50.8723 185.296 56.0971 185.233 60.4885 183.775C61.8937 183.308 62.4767 181.888 61.7666 180.124C61.292 178.947 60.3614 178.106 59.9279 177.777C58.5114 176.697 58.0667 177.059 56.4335 176.36" fill="black"/>
<path d="M105.28 177.698C104.148 177.698 103.15 176.872 102.971 175.718C101.237 164.532 99.4428 152.961 94.1844 142.874C93.5864 141.73 94.0312 140.318 95.1748 139.72C96.3184 139.122 97.7311 139.566 98.3291 140.71C103.946 151.481 105.8 163.437 107.594 175C107.792 176.278 106.917 177.47 105.639 177.668C105.52 177.687 105.396 177.695 105.277 177.695L105.28 177.698Z" fill="black"/>
<path d="M105.83 172.578C103.33 172.971 100.766 175.071 101.184 177.564C101.424 178.991 102.597 180.124 103.924 180.711C105.251 181.297 106.723 181.428 108.169 181.551L111.369 181.828C113.009 181.97 114.721 182.101 116.242 181.473C117.763 180.845 119.008 179.208 118.604 177.612C118.212 176.058 116.171 174.477 114.691 173.86C113.151 173.217 111.156 172.69 109.044 172.515L105.834 172.574L105.83 172.578Z" fill="black"/>
<path d="M15.8311 11.496C14.026 10.7747 12.0377 11.9893 11.8658 13.9253L11.3613 16.945C11.0772 18.3727 10.1205 48.6861 10.1205 57.3679L9.6234 71.0091C9.73926 71.921 9.19735 87.4533 9.12634 88.3689C7.80333 105.344 8.38261 126.31 8.38261 143.173C8.38261 149.34 23.53 157.352 26.9832 158.548C39.877 163.011 36.3714 145.61 35.168 136.726C34.7905 133.934 34.9699 130.309 34.9213 127.551C34.7494 118.282 34.058 110.016 35.1381 100.807C37.1151 83.9664 33.1984 66.5281 36.6592 49.9306C38.2625 42.2317 39.0436 32.1821 36.0799 24.3001C33.6768 17.9055 23.3992 14.5233 15.8348 11.4998L15.8311 11.496Z" fill="#125C13"/>
<path d="M76.5816 5.03792L34.918 12.7256L17.5581 14.4597L20.2863 22.1474L47.8117 28.5942L129.894 14.2093C129.894 14.2093 125.772 9.15271 120.966 8.00909C110.55 5.52751 105.591 1.31181 101.128 1.80888C96.666 2.30594 76.5779 5.03418 76.5779 5.03418L76.5816 5.03792Z" fill="#FBFAD3"/>
<path d="M21.5267 10.001C19.019 10.4308 12.247 10.685 12.1049 13.2263C12.0451 14.2691 14.878 17.6588 15.4573 18.5259C19.004 23.8553 25.5967 30.5077 31.9464 31.3299C38.2961 32.1521 44.5112 27.4095 50.8348 26.4153C78.1733 22.1137 104.66 17.5093 132.133 13.2263C134.895 12.7966 138.086 11.5969 135.358 10.9952C131.374 10.1169 128.963 8.39773 124.288 9.34701C97.5064 14.8035 74.8022 17.3523 47.2769 22.3118C44.5935 22.7939 36.7563 24.5467 34.1327 23.7992C32.051 23.205 25.8433 21.6951 23.2646 20.1703C17.8978 16.9861 18.6527 16.0144 25.9255 15.0838C52.012 11.7464 80.5241 6.70099 105.347 3.06084C108.214 2.63852 105.239 0.762386 102.372 0.332594C93.2085 -1.039 75.6805 2.26479 69.5289 3.2776C53.0697 5.9909 37.9672 7.17189 21.5305 10.001H21.5267Z" fill="#125C13"/>
<path d="M38.4497 28.071C70.3851 22.1511 100.142 19.1762 132.615 11.8884C134.349 11.4997 136.771 10.812 137.836 12.2322C139.324 14.2167 137.855 25.922 137.836 28.8484C137.664 57.2595 137.739 76.5777 137.093 104.981C136.846 115.894 136.506 133.344 134.275 139.047C132.817 142.769 125.552 145.199 120.387 145.561C92.1176 147.546 62.2004 157.308 32.9372 159.539C28.699 159.86 30.6088 153.608 30.9527 149.369C31.6627 140.598 31.2703 133.86 31.4497 125.066C31.5955 117.886 31.5058 109.003 32.1934 102.249C32.911 95.2232 33.1203 86.2461 32.9372 79.1863C32.6494 68.0155 33.9724 60.3502 33.6809 49.1794C33.5277 43.2408 30.6163 29.5211 38.4497 28.0673V28.071Z" fill="#3E7C17"/>
<path d="M4.96713 128.837C5.83793 131.797 7.51972 134.237 9.68363 135.668C11.6345 136.958 14.7365 137.021 15.6858 133.703C16.1156 132.2 15.697 129.416 14.9906 128.295C13.5405 125.996 11.9447 125.279 9.92282 123.825C8.93617 123.115 7.81123 122.506 6.61529 122.827C5.41935 123.148 4.25704 124.785 4.54482 126.228" fill="black"/>
<path d="M22.2894 88.8249C22.3231 89.6733 21.6989 90.4133 20.8543 90.5067C17.416 90.8954 14.1495 92.1623 10.913 94.3524C7.75126 96.4902 4.83988 100.938 3.83081 105.164C3.47203 106.663 3.39354 108.24 3.38233 110.143C3.36738 113.215 3.52435 116.769 4.7913 119.837C6.05451 122.898 8.46135 125.182 11.0663 125.791L10.3375 128.9C6.69359 128.048 3.51687 125.114 1.83882 121.059C0.3551 117.468 0.171972 113.517 0.190658 110.128C0.20187 108.289 0.272879 106.327 0.725095 104.421C1.92477 99.4015 5.29957 94.2926 9.12285 91.7064C12.8191 89.2061 16.5751 87.7635 20.5516 87.3262C21.456 87.2253 22.2558 87.913 22.2894 88.8212V88.8249Z" fill="black" stroke="#030000" stroke-miterlimit="10"/>
<path d="M48.0507 44.9674C44.0817 51.8777 43.9135 61.7255 49.1794 67.5483C50.8836 69.4319 53.0326 70.7997 55.275 71.8499C62.8729 75.4116 72.2088 75.2733 79.0331 70.2205C85.8575 65.1676 89.307 54.8489 85.8874 46.7314C78.3828 28.9193 56.9867 29.4089 48.0507 44.9636V44.9674Z" fill="#FBFAD3"/>
<path d="M93.7843 43.835C92.906 51.7768 97.5702 59.8195 104.518 63.7624C111.466 67.7053 117.782 66.756 125.155 63.6839C133.097 60.3764 137.014 52.7523 135.717 44.0443C134.981 39.111 133.06 34.1143 129.603 30.5189C120.338 20.8841 95.9631 24.1169 93.7843 43.835Z" fill="#FBFAD3"/>
<path d="M68.0304 44.6871C63.4708 45.0347 59.8793 49.7101 60.2567 54.2659C60.6342 58.8217 64.5173 62.701 69.0058 63.5793C71.45 64.0576 74.1035 63.7175 76.1889 62.3572C78.2744 60.9968 79.6908 58.5451 79.5301 56.0598C79.4367 54.6284 78.8499 53.2755 78.151 52.0272C76.0544 48.2899 72.7394 44.3283 68.0304 44.6871Z" fill="#030000"/>
<path d="M104.32 54.4041C106.031 56.1532 108.408 56.5381 110.647 56.7325C113.487 56.9791 116.649 56.9044 118.749 54.5947C120.02 53.197 120.697 51.1564 120.966 49.1121C121.16 47.6396 121.153 46.0774 120.652 44.7133C118.824 39.7202 111.462 37.3171 107.594 39.4025C103.101 41.828 99.8461 49.8296 104.32 54.4004V54.4041Z" fill="#030000"/>
<path d="M68.6208 28.6615C67.01 27.9066 65.3357 27.2936 63.6277 26.8227C62.0618 26.3929 60.3538 26.0977 58.8514 26.7592C57.349 27.4207 56.2503 29.3865 56.9828 30.9039C57.5209 32.0251 58.7804 32.4885 59.9203 32.8585L67.3052 35.2354C68.7366 35.6951 70.2577 36.1623 71.719 35.7736C73.1803 35.3849 74.3314 33.8265 74.0362 32.2755C73.6736 30.362 68.6245 28.6615 68.6245 28.6615H68.6208Z" fill="#030000"/>
<path d="M103.281 23.9188C104.596 22.7229 106.013 21.6391 107.508 20.686C108.876 19.8153 110.423 19.0267 112.052 19.2135C113.686 19.4004 115.315 20.9514 115.065 22.622C114.881 23.8516 113.816 24.6663 112.837 25.3577L106.487 29.8126C105.254 30.6759 103.939 31.5691 102.429 31.6289C100.919 31.6887 99.3567 30.5414 99.181 28.9717C98.9605 27.0358 103.285 23.9188 103.285 23.9188H103.281Z" fill="#030000"/>
<path d="M28.0572 38C27.8406 40 28.1222 44 30.9807 44C33.8393 44 34.229 40 33.9042 38" stroke="white" stroke-width="2" stroke-linecap="round"/>
<path d="M16.0572 49C15.8406 51 16.1222 55 18.9807 55C21.8393 55 22.229 51 21.9042 49" stroke="white" stroke-width="2" stroke-linecap="round"/>
</g>
<defs>
<clipPath id="clip0_73_1168">
<rect width="154" height="184.855" fill="white"/>
</clipPath>
</defs>
</svg>
