<svg width="160" height="183" viewBox="0 0 160 183" fill="none" xmlns="http://www.w3.org/2000/svg">
<g clip-path="url(#clip0_71_1195)">
<path d="M156.557 58.679H156.568C157.179 58.8899 157.36 59.6706 156.935 60.1553L155.865 61.3725C155.728 61.5279 155.544 61.6463 155.336 61.6796C155.151 61.7092 154.903 61.8017 154.7 62.0015C154.204 62.4898 153.916 63.3149 153.605 64.1881L153.542 64.3619C149.779 74.9804 142.065 84.3705 132.375 90.12C130.366 91.3114 127.828 92.5915 125.076 92.7099C123.973 92.758 123.118 91.7442 123.326 90.6565C123.448 90.0053 124.025 89.5614 124.687 89.554C126.848 89.5392 129.031 88.4255 130.762 87.397C139.827 82.0174 147.041 73.2341 150.56 63.3001L150.619 63.1299C151.015 62.0126 151.459 60.7472 152.476 59.7446C153.505 58.7308 155.133 58.1981 156.55 58.6753L156.557 58.679Z" fill="black" stroke="#030000" stroke-miterlimit="10"/>
<path d="M153.065 62.7229C155.914 63.1262 158.492 60.5585 159.158 57.7615C159.824 54.9644 159.443 50.1843 157.597 49.3222C155.24 48.3121 153.102 49.5553 151.7 51.6975C150.297 53.8434 150.127 56.5849 150.505 59.1193C150.749 60.7435 151.559 62.6637 153.198 62.7895" fill="black"/>
<path d="M56.7364 178.864C56.4552 178.864 56.1703 178.819 55.8928 178.73C55.0086 178.442 54.35 177.702 54.1724 176.803C53.9911 175.893 54.3389 174.971 55.0604 174.398C56.137 165.685 57.3357 156.876 58.6233 148.203C58.9156 146.235 59.2781 143.786 60.599 141.658C61.2723 140.571 62.7005 140.238 63.7882 140.915C64.876 141.588 65.2089 143.016 64.5356 144.104C63.7179 145.417 63.4589 147.182 63.2036 148.888C61.8643 157.904 60.6249 167.069 59.5149 176.126C59.4705 176.485 59.3521 177.432 58.553 178.164C58.0535 178.623 57.4023 178.867 56.7364 178.867V178.864Z" fill="black"/>
<path d="M55.8708 174.594C53.0886 173.795 50.0991 173.754 47.2984 174.483C45.3671 174.986 43.2027 176.355 43.3618 178.383C43.4839 179.925 44.9268 180.984 46.3105 181.609C50.3618 183.437 55.5342 183.374 59.8814 181.931C61.2726 181.468 61.8497 180.062 61.1468 178.316C60.6769 177.151 59.7557 176.318 59.3265 175.993C57.9242 174.923 57.484 175.282 55.8671 174.59" fill="black"/>
<path d="M104.224 175.915C103.103 175.915 102.115 175.097 101.937 173.954C100.22 162.88 98.4445 151.426 93.2389 141.44C92.6469 140.308 93.0872 138.909 94.2193 138.317C95.3514 137.725 96.75 138.166 97.3419 139.298C102.903 149.961 104.738 161.796 106.514 173.244C106.71 174.509 105.844 175.689 104.579 175.885C104.46 175.904 104.338 175.911 104.22 175.911L104.224 175.915Z" fill="black"/>
<path d="M104.768 170.846C102.292 171.235 99.7544 173.314 100.169 175.782C100.406 177.195 101.567 178.316 102.881 178.897C104.194 179.478 105.652 179.607 107.084 179.729L110.251 180.003C111.875 180.144 113.569 180.273 115.075 179.652C116.581 179.03 117.813 177.41 117.414 175.83C117.025 174.291 115.005 172.726 113.54 172.115C112.016 171.479 110.04 170.957 107.949 170.783L104.771 170.842L104.768 170.846Z" fill="black"/>
<path d="M15.6725 11.3806C13.8855 10.6666 11.9172 11.869 11.747 13.7855L11.2476 16.775C10.9664 18.1883 10.0192 48.1974 10.0192 56.7921L9.52716 70.2964C9.64186 71.1992 9.10538 86.5756 9.03509 87.482C7.72535 104.287 8.29882 125.042 8.29882 141.736C8.29882 147.841 23.2942 155.773 26.7128 156.957C39.4771 161.375 36.0067 144.148 34.8154 135.354C34.4417 132.59 34.6193 129.001 34.5712 126.271C34.401 117.095 33.7165 108.911 34.7858 99.795C36.743 83.1237 32.8656 65.8603 36.2916 49.4295C37.8788 41.8079 38.6521 31.8591 35.7181 24.0562C33.3391 17.7258 23.1647 14.3775 15.6762 11.3843L15.6725 11.3806Z" fill="#125C13"/>
<path d="M75.8129 4.98734L34.5675 12.5979L17.3818 14.3146L20.0827 21.9251L47.3318 28.3072L128.591 14.0667C128.591 14.0667 124.51 9.06084 119.752 7.92869C109.441 5.47202 104.531 1.29863 100.113 1.79071C95.6957 2.28278 75.8092 4.98364 75.8092 4.98364L75.8129 4.98734Z" fill="#FBFAD3"/>
<path d="M21.3111 9.90071C18.8285 10.3262 12.1244 10.5778 11.9838 13.0936C11.9246 14.1259 14.7291 17.4816 15.3026 18.34C18.8137 23.6159 25.3401 30.2016 31.6261 31.0155C37.9121 31.8295 44.0649 27.1344 50.325 26.1503C77.3891 21.8918 103.61 17.3336 130.807 13.0936C133.541 12.6682 136.701 11.4805 134 10.8849C130.056 10.0154 127.669 8.31349 123.041 9.25324C96.5282 14.655 74.0519 17.1782 46.8027 22.0879C44.1463 22.5652 36.3878 24.3004 33.7905 23.5604C31.7297 22.9721 25.5843 21.4774 23.0315 19.9679C17.7185 16.8157 18.4659 15.8537 25.6657 14.9324C51.4904 11.6285 79.7163 6.63377 104.29 3.03016C107.128 2.61208 104.183 0.754776 101.345 0.329298C92.2734 -1.02853 74.9213 2.2421 68.8314 3.24475C52.5375 5.93081 37.5865 7.09995 21.3148 9.90071H21.3111Z" fill="#125C13"/>
<path d="M38.0635 27.7893C69.6783 21.9288 99.1362 18.9837 131.284 11.7691C133.001 11.3843 135.398 10.7036 136.453 12.1095C137.925 14.0741 136.471 25.6619 136.453 28.5589C136.282 56.6848 136.356 75.8091 135.716 103.928C135.472 114.731 135.135 132.006 132.927 137.651C131.484 141.336 124.291 143.741 119.178 144.1C91.1927 146.065 61.5758 155.729 32.6063 157.938C28.4107 158.256 30.3013 152.066 30.6417 147.87C31.3446 139.187 30.9561 132.516 31.1337 123.81C31.278 116.703 31.1892 107.909 31.87 101.223C32.5804 94.2675 32.7875 85.3805 32.6063 78.3916C32.3214 67.3329 33.6311 59.7446 33.3425 48.6858C33.1908 42.8068 30.3087 29.2248 38.0635 27.7856V27.7893Z" fill="#3E7C17"/>
<path d="M4.91704 127.544C5.7791 130.474 7.44401 132.89 9.5862 134.307C11.5175 135.583 14.5883 135.646 15.5281 132.361C15.9536 130.873 15.5392 128.117 14.8399 127.007C13.4044 124.732 11.8246 124.021 9.82299 122.582C8.84624 121.879 7.7326 121.276 6.54866 121.594C5.36472 121.912 4.21408 123.533 4.49896 124.961" fill="black"/>
<path d="M22.0657 87.9334C22.099 88.7732 21.4811 89.5058 20.6449 89.5983C17.2411 89.9831 14.0075 91.2373 10.8034 93.4054C7.67341 95.5217 4.79126 99.9245 3.79231 104.109C3.43713 105.593 3.35943 107.154 3.34833 109.037C3.33353 112.078 3.48892 115.597 4.74316 118.634C5.99369 121.665 8.37637 123.925 10.9551 124.528L10.2337 127.606C6.62636 126.763 3.48152 123.859 1.82031 119.844C0.351485 116.289 0.170194 112.378 0.188693 109.022C0.199793 107.202 0.270089 105.26 0.717766 103.373C1.9054 98.4038 5.24633 93.3462 9.03124 90.7859C12.6904 88.3107 16.4087 86.8826 20.3453 86.4497C21.2406 86.3498 22.0324 87.0306 22.0657 87.9297V87.9334Z" fill="black" stroke="#030000" stroke-miterlimit="10"/>
<path d="M47.5684 44.5161C43.6392 51.3571 43.4727 61.1061 48.6858 66.8704C50.3729 68.7351 52.5003 70.0892 54.7201 71.1288C62.2419 74.6548 71.484 74.5179 78.2398 69.5157C84.9957 64.5136 88.4106 54.2984 85.0253 46.2624C77.5961 28.6291 56.4147 29.1138 47.5684 44.5124V44.5161Z" fill="#FBFAD3"/>
<path d="M92.8428 43.3951C91.9733 51.2571 96.5907 59.2191 103.469 63.1224C110.347 67.0257 116.599 66.086 123.899 63.0447C131.761 59.7704 135.638 52.2228 134.355 43.6022C133.626 38.7185 131.724 33.7718 128.302 30.2126C119.13 20.6745 94.9998 23.8749 92.8428 43.3951V43.3951Z" fill="#FBFAD3"/>
<path d="M67.3476 44.2386C62.8338 44.5827 59.2783 49.2111 59.652 53.7212C60.0257 58.2313 63.8698 62.0717 68.3132 62.9411C70.7329 63.4147 73.3598 63.078 75.4243 61.7313C77.4888 60.3846 78.891 57.9575 78.7319 55.4971C78.6394 54.0801 78.0585 52.7407 77.3667 51.505C75.2911 47.8052 72.0093 43.8834 67.3476 44.2386V44.2386Z" fill="#030000"/>
<path d="M103.273 53.8581C104.967 55.5896 107.32 55.9707 109.537 56.1631C112.348 56.4073 115.478 56.3333 117.558 54.0468C118.816 52.6631 119.485 50.643 119.752 48.6192C119.944 47.1615 119.937 45.615 119.441 44.2645C117.632 39.3216 110.343 36.9426 106.514 39.0071C102.067 41.4083 98.8441 49.3296 103.273 53.8544V53.8581Z" fill="#030000"/>
<path d="M66.4594 28.137C64.7353 27.7744 62.9853 27.5561 61.2316 27.4896C59.6259 27.4304 57.9129 27.5303 56.6105 28.507C55.3082 29.4838 54.694 31.6259 55.7411 32.9246C56.5143 33.8828 57.8315 34.0493 59.0117 34.1455L66.6666 34.7745C68.1502 34.8966 69.7227 35.0039 71.0435 34.2972C72.3643 33.5905 73.1228 31.8294 72.4901 30.4013C71.7095 28.6402 66.4594 28.137 66.4594 28.137V28.137Z" fill="#030000"/>
<path d="M103.58 21.4848C105.152 20.6893 106.784 20.027 108.463 19.5091C109.999 19.0355 111.678 18.6877 113.188 19.2982C114.698 19.9087 115.844 21.8141 115.171 23.3384C114.672 24.4631 113.443 24.9663 112.326 25.3659L105.097 27.952C103.694 28.4552 102.203 28.9621 100.746 28.6217C99.2878 28.2813 98.1002 26.7755 98.3407 25.2327C98.6404 23.3273 103.583 21.4848 103.583 21.4848H103.58Z" fill="#030000"/>
</g>
<defs>
<clipPath id="clip0_71_1195">
<rect width="159.466" height="183" fill="white"/>
</clipPath>
</defs>
</svg>
