<svg width="180" height="42" viewBox="0 0 180 42" fill="none" xmlns="http://www.w3.org/2000/svg">
<path d="M19.3054 39.3684C19.2026 39.8203 19.0535 40.1232 18.8993 40.3286C18.6988 40.4313 18.344 40.5289 17.8864 40.5289H4.29294C3.18242 40.5289 2.42153 40.3286 2.02051 39.9743C1.56808 39.5687 1.36245 39.0141 1.36245 38.208V3.32734C1.36245 2.77279 1.25961 2.36714 1.0591 2.11553C0.858588 1.91528 0.503843 1.66367 0 1.36072L0.406148 0.503209H19.763L18.8016 5.2991C18.6987 5.80231 18.5496 6.10526 18.3954 6.20796C18.1949 6.40821 17.8402 6.45956 17.3826 6.45956H8.33399V34.5725H20.2617L19.3003 39.3684H19.3054ZM23.7012 21.4994H18.3954C17.8916 21.4994 17.5882 21.448 17.434 21.2478C17.2335 21.1451 17.0792 20.8421 16.9815 20.3389L16.0201 15.543H23.7012V2.82413C23.7012 2.26958 23.5984 1.86393 23.3979 1.61232C23.1973 1.41207 22.8426 1.16046 22.3388 0.85751L22.7449 0H29.5674C30.0198 0 30.3231 0.148908 30.4773 0.405648C30.5802 0.7086 30.6779 1.0629 30.6779 1.51476V38.5571C30.6779 39.4146 30.5288 40.0205 30.3231 40.3235C30.0198 40.6264 29.4645 40.8267 28.606 40.9294L23.7063 41.5353V21.4994H23.7012ZM40.9347 38.0539C40.9347 38.9114 40.7856 39.5173 40.5799 39.8203C40.2766 40.1232 39.7213 40.3235 38.8627 40.4262L33.9631 41.0321V2.82413C33.9631 2.26958 33.8603 1.86393 33.6598 1.61232C33.4593 1.41207 33.1045 1.16046 32.6007 0.85751L33.0069 0H39.8293C40.2817 0 40.5851 0.148908 40.7393 0.405648C40.8421 0.7086 40.9398 1.0629 40.9398 1.51476V38.0539H40.9347Z" fill="black"/>
<path d="M48.2612 38.1566C47.6545 38.1566 47.2998 38.0077 47.2021 37.8023C47.053 37.5507 47.0016 37.1964 47.0016 36.7908V35.0244C47.0016 34.4699 46.8988 34.0642 46.6983 33.8126C46.4977 33.6123 46.143 33.3607 45.6392 33.0578L46.0453 32.2003H88.4967L87.5352 36.9962C87.4324 37.448 87.2833 37.751 87.1291 37.9564C86.9286 38.0591 86.5738 38.1566 86.1163 38.1566H48.2612V38.1566ZM58.8265 7.26575H75.2014V3.32737C75.2014 2.77281 75.0985 2.36716 74.898 2.11556C74.6975 1.9153 74.3428 1.6637 73.8389 1.36074L74.2451 0.503235H81.0675C81.52 0.503235 81.8233 0.652143 81.9775 0.908883C82.0804 1.21184 82.178 1.56614 82.178 2.018V21.9512C82.178 22.8601 82.029 23.466 81.8233 23.769C81.52 24.1746 80.9647 24.3235 80.1061 24.3235H54.7854C53.6749 24.3235 52.914 24.1746 52.513 23.769C52.0606 23.4147 51.8549 22.8088 51.8549 22.0026V3.32737C51.8549 2.77281 51.7521 2.36716 51.5516 2.11556C51.3511 1.9153 50.9963 1.6637 50.4925 1.36074L50.8987 0.503235H57.7211C58.1735 0.503235 58.4769 0.652143 58.6311 0.908883C58.7339 1.21184 58.8316 1.56614 58.8316 2.018V7.26575H58.8265ZM75.2014 18.3723V13.2221H58.8265V18.3723H75.2014Z" fill="black"/>
<path d="M109.061 25.638V23.5174H93.7456C93.1389 23.5174 92.7841 23.4147 92.6865 23.1631C92.5374 22.9628 92.486 22.6085 92.486 22.1515V20.3851C92.486 19.8306 92.3831 19.4249 92.1826 19.1733C91.9821 18.9731 91.6274 18.7215 91.1235 18.4185L91.5297 17.561H133.981L133.02 22.3569C132.917 22.8601 132.768 23.1631 132.613 23.2657C132.413 23.466 132.058 23.5174 131.601 23.5174H116.033V25.638H127.102C127.554 25.638 127.858 25.7921 128.012 26.0437C128.115 26.3466 128.213 26.7009 128.213 27.1528V38.5109C128.213 39.3684 128.063 39.9744 127.858 40.2773C127.554 40.5803 126.999 40.7805 126.141 40.8832L121.241 41.4891V31.5944H99.658C99.0513 31.5944 98.6966 31.6971 98.4961 31.8973C98.2442 32.0976 97.9923 32.4519 97.6889 32.9551L96.8303 32.5494V26.7471C96.8303 26.2953 96.9332 25.9923 97.2365 25.8383C97.4884 25.7356 97.8431 25.638 98.347 25.638H109.061V25.638ZM103.853 3.22467H121.241C121.19 2.72146 121.087 2.36716 120.886 2.11556C120.686 1.9153 120.331 1.6637 119.873 1.36074L120.28 0.503235H127.102C127.554 0.503235 127.858 0.652143 128.012 0.908883C128.115 1.21184 128.213 1.56614 128.213 2.018V13.3761C128.213 14.285 128.063 14.8909 127.858 15.1939C127.554 15.5995 126.999 15.7484 126.141 15.7484H99.8071C98.6966 15.7484 97.9357 15.5995 97.5347 15.1939C97.0823 14.8396 96.8766 14.2337 96.8766 13.4275V3.32737C96.8766 2.77281 96.7738 2.36716 96.5733 2.11556C96.3727 1.9153 96.018 1.6637 95.5142 1.36074L95.9203 0.503235H102.743C103.195 0.503235 103.499 0.652143 103.653 0.908883C103.756 1.21184 103.853 1.56614 103.853 2.018V3.22981V3.22467ZM121.241 10.5417V8.16947H103.853V10.5417H121.241Z" fill="black"/>
<path d="M139.235 38.1566C138.629 38.1566 138.274 38.0077 138.176 37.8023C138.027 37.5507 137.976 37.1964 137.976 36.7907V35.0244C137.976 34.4698 137.873 34.0642 137.672 33.8126C137.472 33.6123 137.117 33.3607 136.613 33.0577L137.019 32.2002H179.471L178.509 36.9961C178.407 37.448 178.257 37.7509 178.103 37.9563C177.903 38.059 177.548 38.1566 177.09 38.1566H139.235V38.1566ZM158.037 12.4621C157.327 13.6739 156.572 14.8344 155.764 15.9435C154.957 17.104 154.099 18.1669 153.286 19.1219C152.428 20.1335 151.621 21.0423 150.808 21.7971C149.95 22.6033 149.189 23.2606 148.536 23.7638C147.929 24.1694 147.323 24.421 146.613 24.5186C145.857 24.6213 145.096 24.5699 144.341 24.3183L139.184 22.6547C140.145 22.3517 141.204 21.7971 142.366 20.8883C143.477 20.0821 144.593 19.0706 145.754 17.9101C146.916 16.7497 147.981 15.5378 149.091 14.2233C150.104 12.9088 151.06 11.6508 151.873 10.3876C152.68 9.17584 153.338 8.01538 153.842 6.95761C154.294 5.94606 154.551 5.19124 154.551 4.58534V2.92167C154.551 2.56737 154.448 2.26441 154.248 2.06416C154.047 1.8639 153.693 1.65851 153.189 1.35556L153.595 0.498047H160.417C160.87 0.498047 161.173 0.646956 161.327 0.903696C161.43 1.20665 161.528 1.56095 161.528 2.01281V4.58534C161.528 5.19124 161.78 5.94606 162.284 6.95761C162.736 8.01538 163.394 9.17584 164.206 10.3876C165.014 11.6508 165.924 12.914 167.034 14.2233C168.047 15.5378 169.157 16.7959 170.319 17.9101C171.43 19.0706 172.592 20.0821 173.754 20.8883C174.864 21.7971 175.877 22.3517 176.89 22.6547L171.733 24.3183C170.926 24.5699 170.217 24.6213 169.507 24.5186C168.751 24.4159 168.093 24.1643 167.538 23.7638C166.828 23.2606 166.124 22.6033 165.312 21.7971C164.453 21.0423 163.595 20.1335 162.787 19.1219C161.929 18.1617 161.122 17.104 160.309 15.9435C159.502 14.8344 158.741 13.6739 158.037 12.4621Z" fill="black"/>
</svg>
