<svg width="163" height="25" viewBox="0 0 163 25" fill="none" xmlns="http://www.w3.org/2000/svg">
<path d="M1.35724 2.38511C1.35724 2.02054 1.2904 1.75354 1.15672 1.58409C1.02305 1.45058 0.791701 1.28114 0.45752 1.08088L0.724843 0.516052H8.10771C11.5832 0.516052 14.2206 1.34789 16.0612 2.98588C17.8658 4.65469 18.7655 7.35559 18.7655 11.0629V12.8293C18.7655 16.7677 17.8298 19.7048 16.0252 21.6406C14.1898 23.5764 11.5472 24.5777 8.10771 24.5777H1.35724V2.39025V2.38511ZM8.2722 20.6393C9.14107 20.6393 9.97398 20.5058 10.7092 20.208C11.4084 19.941 12.0459 19.5096 12.5806 18.8729C13.0793 18.2721 13.4803 17.4403 13.7836 16.439C14.051 15.4377 14.1846 14.2362 14.1846 12.7677V11.0321C14.1846 9.7638 14.015 8.69577 13.7528 7.82799C13.4546 6.99616 13.0536 6.32863 12.5189 5.79461C11.9533 5.32735 11.285 4.96278 10.5138 4.76252C9.71178 4.56227 8.8429 4.45957 7.84035 4.45957H5.96893V20.6444H8.2722V20.6393Z" fill="black"/>
<path d="M30.5902 24.9063C27.6494 24.9063 25.4798 24.1412 24.0094 22.6367C22.5082 21.1682 21.7729 19.068 21.7729 16.3312V15.6329C21.7729 14.1643 21.9735 12.8652 22.4413 11.7612C22.8424 10.6932 23.4439 9.79461 24.2099 9.06034C24.9451 8.36201 25.8448 7.82799 26.8474 7.45829C27.8499 7.12452 28.8833 6.95508 30.0195 6.95508C32.5593 6.95508 34.5284 7.68935 35.8651 9.09114C37.2019 10.5237 37.8702 12.5931 37.8702 15.2632C37.8702 16.1309 37.7006 16.665 37.4384 16.8652C37.1042 17.1322 36.6723 17.2298 36.1016 17.2298H26.6469C26.6469 18.7651 26.981 19.8331 27.6802 20.4339C28.3486 21.0655 29.3512 21.3684 30.7547 21.3684C31.4231 21.3684 32.0914 21.3017 32.7907 21.1682C33.459 21.0706 34.0914 20.8703 34.7598 20.6033C35.1608 20.439 35.5618 20.3723 35.896 20.4031C36.1993 20.4698 36.4667 20.5725 36.698 20.7677C36.8985 21.0039 37.099 21.2709 37.2327 21.5995C37.3664 21.9641 37.4641 22.3646 37.5309 22.7651C36.8625 23.2632 35.9628 23.7664 34.7906 24.2336C33.5876 24.665 32.184 24.9012 30.5799 24.9012L30.5902 24.9063ZM30.0915 10.2567C29.7265 10.2567 29.3563 10.3235 28.9913 10.4262C28.5903 10.5597 28.2561 10.76 27.9579 11.027C27.6237 11.3607 27.3255 11.7612 27.089 12.2953C26.8217 12.8293 26.688 13.5276 26.6211 14.3646H33.3356C33.2996 13.6303 33.202 13.0295 33.0375 12.4955C32.8369 11.9974 32.6056 11.561 32.3383 11.2272C32.0401 10.8935 31.7059 10.6624 31.3357 10.4929C30.9347 10.3594 30.5028 10.2619 30.1018 10.2619L30.0915 10.2567Z" fill="black"/>
<path d="M40.3435 9.0552C40.2458 8.85495 40.1122 8.69063 39.9785 8.55713C39.778 8.49038 39.5775 8.38768 39.377 8.29012L39.6443 7.7561H44.7907L48.6672 19.4686L52.6414 7.7561H57.3868L51.207 24.5725H45.8961L40.3487 9.0552H40.3435Z" fill="black"/>
<path d="M69.5765 2.54943C69.5765 2.08217 69.4788 1.7484 69.3451 1.54814C69.1446 1.41464 68.9441 1.25033 68.6768 1.08088L68.9441 0.516052H78.6662C79.9361 0.516052 81.0723 0.685498 82.008 0.947373C82.9077 1.28113 83.6429 1.68165 84.2445 2.21567C84.81 2.74968 85.247 3.41721 85.5452 4.15148C85.8126 4.91657 85.9462 5.75354 85.9462 6.62132C85.9462 7.11939 85.8794 7.6226 85.7457 8.12067C85.5812 8.65469 85.3447 9.12196 85.0773 9.55328C84.7432 10.0205 84.3782 10.4519 83.9103 10.7856C83.4424 11.1861 82.8769 11.4531 82.2085 11.6175C83.6789 12.1155 84.8151 12.819 85.684 13.6868C86.486 14.6213 86.9179 15.8229 86.9179 17.3222C86.9179 19.5918 86.2855 21.3582 85.0465 22.6264C83.7766 23.8947 81.8384 24.5623 79.2009 24.5623H69.5765V2.53916V2.54943ZM77.7305 10.1232C78.1984 10.1232 78.6302 10.0873 79.0981 10.0205C79.5299 9.95379 79.931 9.82029 80.2651 9.62003C80.5993 9.41977 80.8667 9.15277 81.0672 8.7882C81.2677 8.45444 81.3654 7.98717 81.3654 7.3864C81.3654 6.28756 81.0672 5.51733 80.4657 5.08601C79.8641 4.6855 78.9953 4.45443 77.895 4.45443H74.1522V10.1284H77.7254L77.7305 10.1232ZM78.6662 20.6342C79.8024 20.6342 80.6713 20.398 81.3397 19.9358C81.972 19.5045 82.3062 18.7035 82.3062 17.5327C82.3062 16.1309 81.972 15.1964 81.3705 14.7291C80.7022 14.2978 79.8024 14.0616 78.5994 14.0616H74.1573V20.6342H78.6662V20.6342Z" fill="black"/>
<path d="M98.1776 24.9063C96.9077 24.9063 95.7406 24.7061 94.7021 24.3415C93.6327 23.941 92.697 23.3402 91.931 22.6059C91.1289 21.8717 90.5274 20.9731 90.1264 19.905C89.6585 18.837 89.458 17.6355 89.458 16.3004V15.8023C89.458 14.4005 89.6945 13.1322 90.1932 11.9975C90.6611 10.8986 91.3294 9.96408 92.1623 9.16305C92.9643 8.42878 93.9 7.82801 94.9694 7.4275C96.0028 7.06293 97.0722 6.86267 98.2084 6.86267C99.4115 6.86267 100.579 7.06293 101.648 7.4275C102.717 7.82801 103.653 8.39284 104.455 9.12711C105.221 9.8922 105.859 10.7959 106.326 11.864C106.758 12.932 106.995 14.1643 106.995 15.4994V15.9666C106.995 17.3993 106.727 18.6675 106.26 19.7715C105.725 20.9063 105.057 21.8409 104.255 22.5751C103.422 23.3094 102.486 23.9102 101.447 24.3107C100.378 24.7112 99.2778 24.9114 98.1724 24.9114L98.1776 24.9063ZM98.2444 21.6714C98.7122 21.6714 99.211 21.5738 99.6788 21.3736C100.147 21.2041 100.548 20.9063 100.913 20.475C101.247 20.0745 101.545 19.5097 101.782 18.8062C101.982 18.1387 102.08 17.3376 102.08 16.3364V15.371C102.08 14.3697 101.946 13.5379 101.746 12.8704C101.514 12.2028 101.211 11.6688 100.877 11.2683C100.476 10.8678 100.075 10.6008 99.6068 10.4005C99.139 10.267 98.6403 10.1695 98.1364 10.1695C97.6018 10.1695 97.1339 10.267 96.6661 10.4365C96.1982 10.6367 95.7972 10.9346 95.463 11.3351C95.098 11.7664 94.8306 12.3004 94.6301 12.9679C94.3936 13.6355 94.2959 14.4673 94.2959 15.4018V16.3004C94.2959 17.3684 94.3936 18.267 94.661 18.9346C94.8615 19.6329 95.1597 20.1669 95.5607 20.5674C95.9257 20.9679 96.3627 21.2658 96.8306 21.3993C97.2984 21.5995 97.7663 21.6663 98.2341 21.6663L98.2444 21.6714Z" fill="black"/>
<path d="M118.223 24.9063C116.953 24.9063 115.786 24.7061 114.748 24.3415C113.678 23.941 112.742 23.3402 111.976 22.6059C111.174 21.8717 110.573 20.9731 110.172 19.905C109.704 18.837 109.503 17.6355 109.503 16.3004V15.8023C109.503 14.4005 109.74 13.1322 110.239 11.9975C110.706 10.8986 111.375 9.96408 112.208 9.16305C113.01 8.42878 113.945 7.82801 115.015 7.4275C116.048 7.06293 117.118 6.86267 118.254 6.86267C119.457 6.86267 120.624 7.06293 121.693 7.4275C122.763 7.82801 123.698 8.39284 124.5 9.12711C125.266 9.8922 125.904 10.7959 126.372 11.864C126.804 12.932 127.04 14.1643 127.04 15.4994V15.9666C127.04 17.3993 126.773 18.6675 126.305 19.7715C125.77 20.9063 125.102 21.8409 124.3 22.5751C123.467 23.3094 122.531 23.9102 121.493 24.3107C120.423 24.7112 119.323 24.9114 118.218 24.9114L118.223 24.9063ZM118.29 21.6714C118.758 21.6714 119.256 21.5738 119.724 21.3736C120.192 21.2041 120.593 20.9063 120.958 20.475C121.292 20.0745 121.591 19.5097 121.827 18.8062C122.028 18.1387 122.125 17.3376 122.125 16.3364V15.371C122.125 14.3697 121.992 13.5379 121.791 12.8704C121.56 12.2028 121.256 11.6688 120.922 11.2683C120.521 10.8678 120.12 10.6008 119.652 10.4005C119.184 10.267 118.686 10.1695 118.182 10.1695C117.647 10.1695 117.179 10.267 116.711 10.4365C116.244 10.6367 115.843 10.9346 115.508 11.3351C115.143 11.7664 114.876 12.3004 114.676 12.9679C114.439 13.6355 114.341 14.4673 114.341 15.4018V16.3004C114.341 17.3684 114.439 18.267 114.706 18.9346C114.907 19.6329 115.205 20.1669 115.606 20.5674C115.971 20.9679 116.408 21.2658 116.876 21.3993C117.344 21.5995 117.812 21.6663 118.28 21.6663L118.29 21.6714Z" fill="black"/>
<path d="M130.382 2.38511C130.382 2.02054 130.315 1.75354 130.182 1.58409C130.048 1.45058 129.817 1.28114 129.482 1.08088L129.75 0.516052H134.259C134.557 0.516052 134.757 0.613615 134.86 0.783063C134.927 0.98332 134.994 1.21438 134.994 1.51733V14.2619L140.809 7.6534H146.253L139.102 15.1297L147.122 24.5058H141.642L136.331 18.1335L134.994 18.9654V22.9345C134.994 23.4994 134.896 23.8999 134.757 24.1001C134.557 24.3004 134.192 24.4339 133.621 24.5007L130.382 24.9012V2.37998V2.38511Z" fill="black"/>
<path d="M154.942 24.8755C154.34 24.8755 153.739 24.8088 153.137 24.742C152.536 24.6444 151.934 24.5417 151.369 24.4082C150.767 24.2747 150.232 24.1104 149.734 23.941C149.199 23.7407 148.767 23.5405 148.366 23.3402C148.464 22.3389 148.767 21.6406 149.266 21.1733C149.734 20.7728 150.299 20.6752 151.035 20.9423C152.104 21.3428 153.24 21.5738 154.474 21.6406C154.875 21.6765 155.276 21.6765 155.708 21.6406C156.109 21.6406 156.474 21.5738 156.844 21.4403C157.178 21.3428 157.477 21.1733 157.713 20.9063C157.914 20.6701 158.047 20.3364 158.047 19.8742C158.047 19.4737 157.95 19.1399 157.78 18.8729C157.579 18.6367 157.348 18.4416 157.014 18.2414C156.68 18.1079 156.279 17.9435 155.811 17.81C155.312 17.7125 154.777 17.579 154.207 17.4455C152.603 17.045 151.333 16.4442 150.397 15.5764C149.461 14.7754 148.993 13.7073 148.993 12.439C148.993 11.7048 149.127 11.0064 149.425 10.3389C149.693 9.70734 150.094 9.13738 150.695 8.63931C151.23 8.17204 151.929 7.80747 152.798 7.50452C153.6 7.23751 154.603 7.104 155.739 7.104C157.009 7.104 158.279 7.23751 159.482 7.50452C160.685 7.80233 161.687 8.17204 162.52 8.60336C162.186 9.8049 161.754 10.57 161.219 10.8729C160.654 11.2067 159.883 11.1399 158.88 10.6059C158.047 10.303 157.209 10.1387 156.34 10.1387C155.338 10.1387 154.639 10.3389 154.238 10.7394C153.806 11.1708 153.605 11.674 153.605 12.2388C153.605 12.5726 153.636 12.8704 153.739 13.0706C153.806 13.3376 153.975 13.5379 154.207 13.6714C154.407 13.8717 154.675 14.0052 155.04 14.1027C155.374 14.2362 155.842 14.3697 156.376 14.4673C157.379 14.6675 158.279 14.8986 159.081 15.1656C159.847 15.4326 160.515 15.7972 161.05 16.1977C161.584 16.629 161.985 17.1322 162.284 17.733C162.551 18.3646 162.685 19.0989 162.685 19.9666C162.685 20.8344 162.484 21.5995 162.083 22.2003C161.682 22.801 161.117 23.3351 160.448 23.7356C159.713 24.1361 158.911 24.4031 157.975 24.6034C157.04 24.7728 156.006 24.8704 154.937 24.8704L154.942 24.8755Z" fill="black"/>
</svg>
