<svg width="390" height="24" viewBox="0 0 390 24" fill="none" xmlns="http://www.w3.org/2000/svg">
<path opacity="0.4" d="M358.5 10.5C358.5 9.39543 359.395 8.5 360.5 8.5H377.051C378.156 8.5 379.051 9.39543 379.051 10.5V15.5C379.051 16.6046 378.156 17.5 377.051 17.5H376.092H360.5C359.395 17.5 358.5 16.6046 358.5 15.5V10.5Z" stroke="white"/>
<path fill-rule="evenodd" clip-rule="evenodd" d="M380.531 15.0229C381.376 14.8114 382 14.0657 382 13.1781C382 12.2906 381.376 11.5448 380.531 11.3334V15.0229Z" fill="white" fill-opacity="0.5"/>
<path fill-rule="evenodd" clip-rule="evenodd" d="M359.959 10.9048C359.959 10.3525 360.407 9.90479 360.959 9.90479H376.592C377.144 9.90479 377.592 10.3525 377.592 10.9048V15.0953C377.592 15.6475 377.144 16.0953 376.592 16.0953H360.959C360.407 16.0953 359.959 15.6475 359.959 15.0953V10.9048Z" fill="white"/>
<path d="M12.1738 16.2051C14.3242 16.2051 15.6016 14.5234 15.6016 11.6758C15.6016 8.88086 14.2422 7.33398 12.2207 7.33398C10.3809 7.33398 9.08008 8.57031 9.08008 10.3047C9.08008 11.9277 10.252 13.1113 11.8633 13.1113C12.8535 13.1113 13.6562 12.6543 14.0547 11.8516H14.1543C14.1367 13.8086 13.4277 14.9395 12.1914 14.9395C11.4648 14.9395 10.8848 14.5469 10.7031 13.9141H9.19727C9.44336 15.2969 10.627 16.2051 12.1738 16.2051ZM12.2266 11.916C11.2422 11.916 10.5625 11.2363 10.5625 10.2578C10.5625 9.31445 11.2773 8.59375 12.2324 8.59375C13.1875 8.59375 13.9023 9.32617 13.9023 10.2871C13.9023 11.2305 13.2051 11.916 12.2266 11.916ZM18.2559 14.834C18.8125 14.834 19.1934 14.4355 19.1934 13.9082C19.1934 13.375 18.8125 12.9824 18.2559 12.9824C17.7051 12.9824 17.3184 13.375 17.3184 13.9082C17.3184 14.4355 17.7051 14.834 18.2559 14.834ZM18.2559 10.5566C18.8125 10.5566 19.1934 10.1641 19.1934 9.63672C19.1934 9.10352 18.8125 8.71094 18.2559 8.71094C17.7051 8.71094 17.3184 9.10352 17.3184 9.63672C17.3184 10.1641 17.7051 10.5566 18.2559 10.5566ZM25.0352 16H26.4824V14.3887H27.625V13.1113H26.4824V7.54492H24.3496C23.2012 9.29102 22 11.2188 20.9043 13.1289V14.3887H25.0352V16ZM22.3047 13.0645C23.1309 11.6406 24.1094 10.0879 24.9766 8.77539H25.0586V13.1465H22.3047V13.0645ZM31.0879 16H32.5996V7.54492H31.0938L28.8848 9.0918V10.5449L30.9883 9.06836H31.0879V16ZM43.8145 16H45.4375L42.4316 7.54492H40.7324L37.7324 16H39.2617L39.9883 13.8379H43.0996L43.8145 16ZM41.5 9.15625H41.5996L42.748 12.6426H40.3398L41.5 9.15625ZM55.6211 16V7.54492H53.8516L51.3086 13.7441H51.2031L48.6602 7.54492H46.8906V16H48.2969V10.0527H48.3789L50.7168 15.707H51.7949L54.1328 10.0527H54.2148V16H55.6211Z" fill="white"/>
<path fill-rule="evenodd" clip-rule="evenodd" d="M345.488 8C348.051 8 350.363 9.03944 352 10.7069L350.912 11.764C349.554 10.3655 347.626 9.49223 345.488 9.49223C343.363 9.49223 341.446 10.3543 340.09 11.7371L339 10.6816C340.636 9.02896 342.938 8 345.488 8ZM349.823 12.8214C348.745 11.6917 347.201 10.9845 345.488 10.9845C343.788 10.9845 342.257 11.6798 341.179 12.7927L342.269 13.8486C343.067 13.0054 344.214 12.4767 345.488 12.4767C346.777 12.4767 347.936 13.0182 348.735 13.8793L349.823 12.8214ZM347.644 14.9385C347.126 14.3454 346.352 13.9689 345.488 13.9689C344.639 13.9689 343.878 14.3314 343.36 14.9053L345.523 17L347.644 14.9385Z" fill="white"/>
<path fill-rule="evenodd" clip-rule="evenodd" d="M331.086 8C330.81 8 330.586 8.22386 330.586 8.5V16.5C330.586 16.7761 330.81 17 331.086 17H332.5C332.776 17 333 16.7761 333 16.5V8.5C333 8.22386 332.776 8 332.5 8H331.086ZM327.224 10.3684C326.948 10.3684 326.724 10.5923 326.724 10.8684V16.5C326.724 16.7761 326.948 17 327.224 17H328.638C328.914 17 329.138 16.7761 329.138 16.5V10.8684C329.138 10.5923 328.914 10.3684 328.638 10.3684H327.224ZM322.862 12.7632C322.862 12.487 323.086 12.2632 323.362 12.2632H324.776C325.052 12.2632 325.276 12.487 325.276 12.7632V16.5C325.276 16.7761 325.052 17 324.776 17H323.362C323.086 17 322.862 16.7761 322.862 16.5V12.7632ZM319.5 14.1579C319.224 14.1579 319 14.3818 319 14.6579V16.5C319 16.7761 319.224 17 319.5 17H320.914C321.19 17 321.414 16.7761 321.414 16.5V14.6579C321.414 14.3818 321.19 14.1579 320.914 14.1579H319.5Z" fill="white"/>
</svg>
